<?xml version="1.0" encoding="iso-8859-1"?>
<!-- Generator: Adobe Illustrator 21.0.0, SVG Export Plug-In . SVG Version: 6.00 Build 0)  -->
<svg xmlns="http://www.w3.org/2000/svg" xmlns:xlink="http://www.w3.org/1999/xlink" version="1.1" id="Capa_1" x="0px" y="0px" viewBox="0 0 511.81 511.81" style="enable-background:new 0 0 511.81 511.81;" xml:space="preserve" width="512" height="512">
<g>
	<path style="fill:#8A6746;" d="M460.59,384.873v30H155.7c-25.2,0-45.7-20.51-45.7-45.71s20.5-45.7,45.7-45.7H275v30H155.7   c-8.66,0-15.7,7.05-15.7,15.7c0,8.66,7.04,15.71,15.7,15.71H460.59z"/>
	<rect x="302.03" y="384.873" style="fill:#644B31;" width="158.56" height="30"/>
	<polygon style="fill:#60DD4E;" points="511.81,137.943 456.84,353.463 148.32,353.463 69.92,57.393 0,57.393 0,27.393    93.01,27.393 122.28,137.943  "/>
	<polygon style="fill:#00BB64;" points="511.81,137.943 456.84,353.463 302.03,353.463 302.03,137.943  "/>
	<circle style="fill:#8A6746;" cx="218.248" cy="434.643" r="34.774"/>
	<circle style="fill:#644B31;" cx="383.583" cy="434.643" r="34.774"/>
	<path style="fill:#C7AD92;" d="M218.248,484.417c-27.445,0-49.774-22.329-49.774-49.774c0-27.445,22.329-49.774,49.774-49.774   s49.773,22.329,49.773,49.774C268.021,462.089,245.693,484.417,218.248,484.417z M218.248,414.869   c-10.903,0-19.774,8.871-19.774,19.774c0,10.904,8.871,19.774,19.774,19.774s19.773-8.871,19.773-19.774   C238.021,423.74,229.151,414.869,218.248,414.869z"/>
	<path style="fill:#BD9C7B;" d="M383.583,484.417c-27.445,0-49.774-22.329-49.774-49.774c0-27.445,22.329-49.774,49.774-49.774   s49.773,22.329,49.773,49.774C433.356,462.089,411.028,484.417,383.583,484.417z M383.583,414.869   c-10.903,0-19.774,8.871-19.774,19.774c0,10.904,8.871,19.774,19.774,19.774s19.773-8.871,19.773-19.774   C403.356,423.74,394.486,414.869,383.583,414.869z"/>
	<rect x="193.965" y="200.62" style="fill:#B6EFAB;" width="30" height="95.136"/>
	<rect x="256.054" y="200.62" style="fill:#B6EFAB;" width="30" height="95.136"/>
	<rect x="318.143" y="200.62" style="fill:#95E0BA;" width="30" height="95.136"/>
	<rect x="380.231" y="200.62" style="fill:#95E0BA;" width="30" height="95.136"/>
</g>















</svg>
